{
  "accessors": [
    {
      "bufferView": 2,
      "componentType": 5126,
      "count": 65532,
      "max": [
        8951.9423828125,
        8140,
        -5412.02783203125
      ],
      "min": [
        -8951.9423828125,
        3988,
        -8875.6318359375
      ],
      "type": "VEC3"
    },
    {
      "bufferView": 2,
      "byteOffset": 786384,
      "componentType": 5126,
      "count": 65532,
      "max": [
        0.96184831857681274,
        1,
        0.91555780172348022
      ],
      "min": [
        -0.94344979524612427,
        0.17170540988445282,
        -0.96840506792068481
      ],
      "type": "VEC3"
    },
    {
      "bufferView": 1,
      "componentType": 5126,
      "count": 65532,
      "max": [
        1,
        0.19511872529983521
      ],
      "min": [
        0,
        0
      ],
      "type": "VEC2"
    },
    {
      "bufferView": 0,
      "componentType": 5125,
      "count": 389040,
      "max": [
        65531
      ],
      "min": [
        0
      ],
      "type": "SCALAR"
    },
    {
      "bufferView": 2,
      "byteOffset": 1572768,
      "componentType": 5126,
      "count": 65532,
      "max": [
        8951.9423828125,
        8278,
        -1948.396728515625
      ],
      "min": [
        -8951.9423828125,
        5058,
        -5442.95263671875
      ],
      "type": "VEC3"
    },
    {
      "bufferView": 2,
      "byteOffset": 2359152,
      "componentType": 5126,
      "count": 65532,
      "max": [
        0.95510399341583252,
        1,
        0.91544961929321289
      ],
      "min": [
        -0.96311342716217041,
        0.18636944890022278,
        -0.98058837652206421
      ],
      "type": "VEC3"
    },
    {
      "bufferView": 1,
      "byteOffset": 524256,
      "componentType": 5126,
      "count": 65532,
      "max": [
        1,
        0.39023900032043457
      ],
      "min": [
        0,
        0.19337661564350128
      ],
      "type": "VEC2"
    },
    {
      "bufferView": 0,
      "byteOffset": 1556160,
      "componentType": 5125,
      "count": 389025,
      "max": [
        65531
      ],
      "min": [
        0
      ],
      "type": "SCALAR"
    },
    {
      "bufferView": 2,
      "byteOffset": 3145536,
      "componentType": 5126,
      "count": 65532,
      "max": [
        8951.9423828125,
        7936,
        1515.26171875
      ],
      "min": [
        -8951.9423828125,
        5536,
        -1979.3221435546875
      ],
      "type": "VEC3"
    },
    {
      "bufferView": 2,
      "byteOffset": 3931920,
      "componentType": 5126,
      "count": 65532,
      "max": [
        0.97350728511810303,
        1,
        0.94717234373092651
      ],
      "min": [
        -0.97376394271850586,
        0.17741194367408752,
        -0.95551377534866333
      ],
      "type": "VEC3"
    },
    {
      "bufferView": 1,
      "byteOffset": 1048512,
      "componentType": 5126,
      "count": 65532,
      "max": [
        1,
        0.58536076545715332
      ],
      "min": [
        0,
        0.38849681615829468
      ],
      "type": "VEC2"
    },
    {
      "bufferView": 0,
      "byteOffset": 3112260,
      "componentType": 5125,
      "count": 389028,
      "max": [
        65531
      ],
      "min": [
        0
      ],
      "type": "SCALAR"
    },
    {
      "bufferView": 2,
      "byteOffset": 4718304,
      "componentType": 5126,
      "count": 65532,
      "max": [
        8951.9423828125,
        7996,
        4978.94873046875
      ],
      "min": [
        -8951.9423828125,
        4942,
        1484.3360595703125
      ],
      "type": "VEC3"
    },
    {
      "bufferView": 2,
      "byteOffset": 5504688,
      "componentType": 5126,
      "count": 65532,
      "max": [
        0.96300357580184937,
        1,
        0.92992913722991943
      ],
      "min": [
        -0.9775964617729187,
        0.18739648163318634,
        -0.95875567197799683
      ],
      "type": "VEC3"
    },
    {
      "bufferView": 1,
      "byteOffset": 1572768,
      "componentType": 5126,
      "count": 65532,
      "max": [
        1,
        0.78048413991928101
      ],
      "min": [
        0,
        0.58361858129501343
      ],
      "type": "VEC2"
    },
    {
      "bufferView": 0,
      "byteOffset": 4668372,
      "componentType": 5125,
      "count": 389028,
      "max": [
        65531
      ],
      "min": [
        0
      ],
      "type": "SCALAR"
    },
    {
      "bufferView": 2,
      "byteOffset": 6291072,
      "componentType": 5126,
      "count": 65532,
      "max": [
        8951.9423828125,
        8200,
        8442.6650390625
      ],
      "min": [
        -8951.9423828125,
        5420,
        4948.02294921875
      ],
      "type": "VEC3"
    },
    {
      "bufferView": 2,
      "byteOffset": 7077456,
      "componentType": 5126,
      "count": 65532,
      "max": [
        0.95199227333068848,
        1,
        0.90705215930938721
      ],
      "min": [
        -0.93579363822937012,
        0.17372313141822815,
        -0.95789253711700439
      ],
      "type": "VEC3"
    },
    {
      "bufferView": 1,
      "byteOffset": 2097024,
      "componentType": 5126,
      "count": 65532,
      "max": [
        1,
        0.97560924291610718
      ],
      "min": [
        0,
        0.77874195575714111
      ],
      "type": "VEC2"
    },
    {
      "bufferView": 0,
      "byteOffset": 6224484,
      "componentType": 5125,
      "count": 389028,
      "max": [
        65531
      ],
      "min": [
        0
      ],
      "type": "SCALAR"
    },
    {
      "bufferView": 2,
      "byteOffset": 7863840,
      "componentType": 5126,
      "count": 8750,
      "max": [
        8951.9423828125,
        8014,
        8875.6318359375
      ],
      "min": [
        -8951.9423828125,
        5990,
        8411.7392578125
      ],
      "type": "VEC3"
    },
    {
      "bufferView": 2,
      "byteOffset": 7968840,
      "componentType": 5126,
      "count": 8750,
      "max": [
        0.92638313770294189,
        1,
        0.91391980648040771
      ],
      "min": [
        -0.94965779781341553,
        0.24410359561443329,
        -0.95425164699554443
      ],
      "type": "VEC3"
    },
    {
      "bufferView": 1,
      "byteOffset": 2621280,
      "componentType": 5126,
      "count": 8750,
      "max": [
        1,
        1
      ],
      "min": [
        0,
        0.97386705875396729
      ],
      "type": "VEC2"
    },
    {
      "bufferView": 0,
      "byteOffset": 7780596,
      "componentType": 5125,
      "count": 48927,
      "max": [
        8749
      ],
      "min": [
        0
      ],
      "type": "SCALAR"
    },
    {
      "bufferView": 2,
      "byteOffset": 8073840,
      "componentType": 5126,
      "count": 4083,
      "max": [
        8084.9912109375,
        7762.68603515625,
        3920.62841796875
      ],
      "min": [
        -2192.313720703125,
        5532.71240234375,
        -8433.056640625
      ],
      "type": "VEC3"
    },
    {
      "bufferView": 2,
      "byteOffset": 8122836,
      "componentType": 5126,
      "count": 4083,
      "max": [
        1,
        1,
        1
      ],
      "min": [
        -1,
        0,
        -1
      ],
      "type": "VEC3"
    },
    {
      "bufferView": 0,
      "byteOffset": 7976304,
      "componentType": 5125,
      "count": 6291,
      "max": [
        4082
      ],
      "min": [
        0
      ],
      "type": "SCALAR"
    },
    {
      "bufferView": 2,
      "byteOffset": 8171832,
      "componentType": 5126,
      "count": 65532,
      "max": [
        16520.103515625,
        8031.3408203125,
        11550.0439453125
      ],
      "min": [
        -10296.318359375,
        3647.195556640625,
        -16759.662109375
      ],
      "type": "VEC3"
    },
    {
      "bufferView": 2,
      "byteOffset": 8958216,
      "componentType": 5126,
      "count": 65532,
      "max": [
        0.98867267370223999,
        1,
        0.97099459171295166
      ],
      "min": [
        -0.97104555368423462,
        -0.90434068441390991,
        -0.99553310871124268
      ],
      "type": "VEC3"
    },
    {
      "bufferView": 0,
      "byteOffset": 8001468,
      "componentType": 5125,
      "count": 195174,
      "max": [
        65531
      ],
      "min": [
        0
      ],
      "type": "SCALAR"
    },
    {
      "bufferView": 2,
      "byteOffset": 9744600,
      "componentType": 5126,
      "count": 18458,
      "max": [
        9579.123046875,
        8064.00390625,
        11054.046875
      ],
      "min": [
        -7055.72705078125,
        6347.765625,
        -3646.795654296875
      ],
      "type": "VEC3"
    },
    {
      "bufferView": 2,
      "byteOffset": 9966096,
      "componentType": 5126,
      "count": 18458,
      "max": [
        0.87281280755996704,
        1,
        0.88682389259338379
      ],
      "min": [
        -0.90982770919799805,
        -0.67864072322845459,
        -0.85720396041870117
      ],
      "type": "VEC3"
    },
    {
      "bufferView": 0,
      "byteOffset": 8782164,
      "componentType": 5125,
      "count": 54726,
      "max": [
        18457
      ],
      "min": [
        0
      ],
      "type": "SCALAR"
    }
  ],
  "asset": {
    "extras": {
      "author": "Xavier Fischer - Elevation API (https://sketchfab.com/xfischer)",
      "license": "CC-BY-NC-SA-4.0 (http://creativecommons.org/licenses/by-nc-sa/4.0/)",
      "source": "https://sketchfab.com/3d-models/quilotoa-ecuador-a787b1db86c644739ff9b708ed58631f",
      "title": "Quilotoa, Ecuador"
    },
    "generator": "Sketchfab-9.55.0",
    "version": "2.0"
  },
  "bufferViews": [
    {
      "buffer": 0,
      "byteLength": 9001068,
      "byteOffset": 0,
      "name": "floatBufferViews",
      "target": 34963
    },
    {
      "buffer": 0,
      "byteLength": 2691280,
      "byteOffset": 9001068,
      "byteStride": 8,
      "name": "floatBufferViews",
      "target": 34962
    },
    {
      "buffer": 0,
      "byteLength": 10187592,
      "byteOffset": 11692348,
      "byteStride": 12,
      "name": "floatBufferViews",
      "target": 34962
    }
  ],
  "buffers": [
    {
      "byteLength": 21879940,
      "uri": "scene.bin"
    }
  ],
  "images": [
    {
      "uri": "textures/TerrainNodeMaterial_baseColor.jpeg"
    }
  ],
  "materials": [
    {
      "doubleSided": true,
      "emissiveFactor": [
        0,
        0,
        0
      ],
      "name": "TerrainNodeMaterial",
      "pbrMetallicRoughness": {
        "baseColorFactor": [
          1,
          1,
          1,
          1
        ],
        "baseColorTexture": {
          "index": 0,
          "texCoord": 0
        },
        "metallicFactor": 0,
        "roughnessFactor": 1
      }
    },
    {
      "doubleSided": true,
      "emissiveFactor": [
        0,
        0,
        0
      ],
      "name": "BuildingsMaterial",
      "pbrMetallicRoughness": {
        "baseColorFactor": [
          1,
          1,
          1,
          1
        ],
        "metallicFactor": 0,
        "roughnessFactor": 1
      }
    },
    {
      "doubleSided": true,
      "emissiveFactor": [
        0,
        0,
        0
      ],
      "name": "RoadsMaterial",
      "pbrMetallicRoughness": {
        "baseColorFactor": [
          1,
          1,
          1,
          1
        ],
        "metallicFactor": 0,
        "roughnessFactor": 0.90000000000000002
      }
    }
  ],
  "meshes": [
    {
      "primitives": [
        {
          "attributes": {
            "NORMAL": 1,
            "POSITION": 0,
            "TEXCOORD_0": 2
          },
          "indices": 3,
          "material": 0,
          "mode": 4
        }
      ]
    },
    {
      "primitives": [
        {
          "attributes": {
            "NORMAL": 5,
            "POSITION": 4,
            "TEXCOORD_0": 6
          },
          "indices": 7,
          "material": 0,
          "mode": 4
        }
      ]
    },
    {
      "primitives": [
        {
          "attributes": {
            "NORMAL": 9,
            "POSITION": 8,
            "TEXCOORD_0": 10
          },
          "indices": 11,
          "material": 0,
          "mode": 4
        }
      ]
    },
    {
      "primitives": [
        {
          "attributes": {
            "NORMAL": 13,
            "POSITION": 12,
            "TEXCOORD_0": 14
          },
          "indices": 15,
          "material": 0,
          "mode": 4
        }
      ]
    },
    {
      "primitives": [
        {
          "attributes": {
            "NORMAL": 17,
            "POSITION": 16,
            "TEXCOORD_0": 18
          },
          "indices": 19,
          "material": 0,
          "mode": 4
        }
      ]
    },
    {
      "primitives": [
        {
          "attributes": {
            "NORMAL": 21,
            "POSITION": 20,
            "TEXCOORD_0": 22
          },
          "indices": 23,
          "material": 0,
          "mode": 4
        }
      ]
    },
    {
      "primitives": [
        {
          "attributes": {
            "NORMAL": 25,
            "POSITION": 24
          },
          "indices": 26,
          "material": 1,
          "mode": 4
        }
      ]
    },
    {
      "primitives": [
        {
          "attributes": {
            "NORMAL": 28,
            "POSITION": 27
          },
          "indices": 29,
          "material": 2,
          "mode": 4
        }
      ]
    },
    {
      "primitives": [
        {
          "attributes": {
            "NORMAL": 31,
            "POSITION": 30
          },
          "indices": 32,
          "material": 2,
          "mode": 4
        }
      ]
    }
  ],
  "nodes": [
    {
      "children": [
        1
      ],
      "name": "RootNode (gltf orientation matrix)",
      "rotation": [
        -0.70710678118654746,
        -0,
        -0,
        0.70710678118654757
      ]
    },
    {
      "children": [
        2
      ],
      "name": "RootNode (model correction matrix)"
    },
    {
      "children": [
        3
      ],
      "name": "root"
    },
    {
      "children": [
        4,
        11,
        13
      ],
      "matrix": [
        1,
        0,
        0,
        0,
        0,
        2.2204460492503131e-16,
        1,
        0,
        0,
        -1,
        2.2204460492503131e-16,
        0,
        0,
        0,
        0,
        1
      ],
      "name": "GLTF_SceneRootNode"
    },
    {
      "children": [
        5,
        6,
        7,
        8,
        9,
        10
      ],
      "name": "TerrainNode_0"
    },
    {
      "mesh": 0,
      "name": ""
    },
    {
      "mesh": 1,
      "name": ""
    },
    {
      "mesh": 2,
      "name": ""
    },
    {
      "mesh": 3,
      "name": ""
    },
    {
      "mesh": 4,
      "name": ""
    },
    {
      "mesh": 5,
      "name": ""
    },
    {
      "children": [
        12
      ],
      "name": "Buildings_1"
    },
    {
      "mesh": 6,
      "name": ""
    },
    {
      "children": [
        14,
        15
      ],
      "name": "Roads_2"
    },
    {
      "mesh": 7,
      "name": ""
    },
    {
      "mesh": 8,
      "name": ""
    }
  ],
  "samplers": [
    {
      "magFilter": 9729,
      "minFilter": 9987,
      "wrapS": 10497,
      "wrapT": 10497
    }
  ],
  "scene": 0,
  "scenes": [
    {
      "name": "OSG_Scene",
      "nodes": [
        0
      ]
    }
  ],
  "textures": [
    {
      "sampler": 0,
      "source": 0
    }
  ]
}

