{
  "accessors": [
    {
      "bufferView": 0,
      "componentType": 5125,
      "count": 1554486,
      "type": "SCALAR"
    },
    {
      "bufferView": 1,
      "componentType": 5126,
      "count": 260100,
      "max": [
        0.996085941791534,
        0.146714210510254,
        0.996085941791534
      ],
      "min": [
        -0.996085941791534,
        -0.0960058569908142,
        -0.996085941791534
      ],
      "type": "VEC3"
    },
    {
      "bufferView": 2,
      "componentType": 5126,
      "count": 260100,
      "type": "VEC3"
    },
    {
      "bufferView": 3,
      "componentType": 5126,
      "count": 260100,
      "type": "VEC2"
    },
    {
      "bufferView": 4,
      "componentType": 5125,
      "count": 12240,
      "type": "SCALAR"
    },
    {
      "bufferView": 5,
      "componentType": 5126,
      "count": 4100,
      "max": [
        1.0,
        0.14002026617527,
        1.0
      ],
      "min": [
        -1.0,
        -0.146714210510254,
        -1.0
      ],
      "type": "VEC3"
    },
    {
      "bufferView": 6,
      "componentType": 5126,
      "count": 4100,
      "type": "VEC3"
    },
    {
      "bufferView": 7,
      "componentType": 5126,
      "count": 4100,
      "type": "VEC2"
    }
  ],
  "asset": {
    "generator": "Substance Painter 2019.3.2",
    "version": "2.0"
  },
  "bufferViews": [
    {
      "buffer": 0,
      "byteLength": 6217944,
      "target": 34963
    },
    {
      "buffer": 0,
      "byteLength": 3121200,
      "byteOffset": 6217944,
      "target": 34962
    },
    {
      "buffer": 0,
      "byteLength": 3121200,
      "byteOffset": 9339144,
      "target": 34962
    },
    {
      "buffer": 0,
      "byteLength": 2080800,
      "byteOffset": 12460344,
      "target": 34962
    },
    {
      "buffer": 0,
      "byteLength": 48960,
      "byteOffset": 14541144,
      "target": 34963
    },
    {
      "buffer": 0,
      "byteLength": 49200,
      "byteOffset": 14590104,
      "target": 34962
    },
    {
      "buffer": 0,
      "byteLength": 49200,
      "byteOffset": 14639304,
      "target": 34962
    },
    {
      "buffer": 0,
      "byteLength": 32800,
      "byteOffset": 14688504,
      "target": 34962
    }
  ],
  "buffers": [
    {
      "byteLength": 14721304,
      "uri": "Ergaki_1_1.bin"
    }
  ],
  "images": [
    {
      "uri": "Terrain_2_baseColor.png"
    },
    {
      "uri": "Terrain_2_occlusionRoughnessMetallic.png"
    },
    {
      "uri": "Terrain_2_normal.png"
    },
    {
      "uri": "Terrain_bttm_baseColor.png"
    },
    {
      "uri": "Terrain_bttm_occlusionRoughnessMetallic.png"
    },
    {
      "uri": "Terrain_bttm_normal.png"
    }
  ],
  "materials": [
    {
      "alphaMode": "OPAQUE",
      "name": "Terrain_2",
      "normalTexture": {
        "index": 2
      },
      "occlusionTexture": {
        "index": 1
      },
      "pbrMetallicRoughness": {
        "baseColorTexture": {
          "index": 0
        },
        "metallicRoughnessTexture": {
          "index": 1
        }
      }
    },
    {
      "alphaMode": "OPAQUE",
      "name": "Terrain_bttm",
      "normalTexture": {
        "index": 5
      },
      "occlusionTexture": {
        "index": 4
      },
      "pbrMetallicRoughness": {
        "baseColorTexture": {
          "index": 3
        },
        "metallicRoughnessTexture": {
          "index": 4
        }
      }
    }
  ],
  "meshes": [
    {
      "name": "TerrainMesh",
      "primitives": [
        {
          "attributes": {
            "NORMAL": 2,
            "POSITION": 1,
            "TEXCOORD_0": 3
          },
          "indices": 0,
          "material": 0,
          "mode": 4
        }
      ]
    },
    {
      "name": "Terrain_bttm",
      "primitives": [
        {
          "attributes": {
            "NORMAL": 6,
            "POSITION": 5,
            "TEXCOORD_0": 7
          },
          "indices": 4,
          "material": 1,
          "mode": 4
        }
      ]
    }
  ],
  "nodes": [
    {
      "children": [
        1,
        3
      ],
      "name": "root",
      "scale": [
        21.948486328125,
        21.948486328125,
        21.948486328125
      ],
      "translation": [
        0.0,
        2.17157912254333,
        0.0
      ]
    },
    {
      "children": [
        2
      ],
      "name": "TerrainMesh"
    },
    {
      "mesh": 0,
      "name": "TerrainMesh"
    },
    {
      "children": [
        4
      ],
      "name": "Terrain_bttm"
    },
    {
      "mesh": 1,
      "name": "Terrain_bttm"
    }
  ],
  "samplers": [
    {
      "magFilter": 9729,
      "minFilter": 9985,
      "wrapS": 10497,
      "wrapT": 10497
    }
  ],
  "scene": 0,
  "scenes": [
    {
      "name": "Scene",
      "nodes": [
        0
      ]
    }
  ],
  "textures": [
    {
      "sampler": 0,
      "source": 0
    },
    {
      "sampler": 0,
      "source": 1
    },
    {
      "sampler": 0,
      "source": 2
    },
    {
      "sampler": 0,
      "source": 3
    },
    {
      "sampler": 0,
      "source": 4
    },
    {
      "sampler": 0,
      "source": 5
    }
  ]
}